# xmcd CD database file
#
# Track frame offsets:
#	150
#	14663
#	29369
#	45474
#	62398
#	76456
#	87749
#	100264
#	115437
#	127569
#	140668
#	152814
#	164969
#	178204
#	191974
#	206292
#	223295
#	240379
#	253970
#	264796
#	278716
#	293371
#
# Disc length: 4086 seconds
#
# Revision: 0
# Processed by: cddbd v1.5.2PL0 Copyright (c) Steve Scherf et al.
# Submitted via: CDex 1.70beta1
#
DISCID=460ff416
DTITLE=Acker Bilk  - Vintage Acker Bilk CD 02 Vol. 2 
DYEAR=1900
DGENRE=Jazz
TTITLE0=Travelling Blues (Version 2)
TTITLE1=Willie the Weeper
TTITLE2=Delia Gone
TTITLE3=Dardanella
TTITLE4=Franklin Street Blues
TTITLE5=Gladiolus Rag
TTITLE6=Easter Parade
TTITLE7=Marching Through Georgia
TTITLE8=Blaze Away
TTITLE9=C.R.E. March
TTITLE10=El Abanico
TTITLE11=Under the Double Eagle
TTITLE12=Jump in the Line (Version 1)
TTITLE13=Higher Ground
TTITLE14=Carry Me Back
TTITLE15=Louisian-I-Ay
TTITLE16=Jelly Bean Blues
TTITLE17=Careless Love
TTITLE18=Marie Elena
TTITLE19=Bye and Bye
TTITLE20=Don't Go 'Way Nobody (Version 2)
TTITLE21=Jump in the Line (Version 2)
EXTD=
EXTT0=
EXTT1=
EXTT2=
EXTT3=
EXTT4=
EXTT5=
EXTT6=
EXTT7=
EXTT8=
EXTT9=
EXTT10=
EXTT11=
EXTT12=
EXTT13=
EXTT14=
EXTT15=
EXTT16=
EXTT17=
EXTT18=
EXTT19=
EXTT20=
EXTT21=
PLAYORDER=
